<svg xmlns="http://www.w3.org/2000/svg" xmlns:xlink="http://www.w3.org/1999/xlink" width="540" zoomAndPan="magnify" viewBox="0 0 404.88 540.000001" height="720" preserveAspectRatio="xMidYMid meet" version="1.0"><defs><clipPath id="94a28a5fed"><path d="M 123 269.5 L 282 269.5 L 282 279.980469 L 123 279.980469 Z M 123 269.5 " clip-rule="nonzero"/></clipPath></defs><g clip-path="url(#94a28a5fed)"><path fill="#d9ec8a" d="M 281.8125 279.136719 C 281.8125 279.488281 281.527344 279.777344 281.171875 279.777344 C 277.566406 279.777344 275.800781 277.359375 274.09375 275.015625 C 272.507812 272.839844 271.007812 270.78125 268.050781 270.78125 C 265.09375 270.78125 263.59375 272.839844 262.007812 275.015625 C 260.300781 277.359375 258.535156 279.777344 254.929688 279.777344 C 251.320312 279.777344 249.554688 277.359375 247.847656 275.015625 C 246.261719 272.839844 244.761719 270.78125 241.804688 270.78125 C 238.847656 270.78125 237.351562 272.839844 235.761719 275.015625 C 234.054688 277.355469 232.289062 279.777344 228.683594 279.777344 C 225.074219 279.777344 223.3125 277.359375 221.605469 275.015625 C 220.015625 272.839844 218.511719 270.78125 215.558594 270.78125 C 212.605469 270.78125 211.105469 272.839844 209.515625 275.015625 C 207.808594 277.355469 206.042969 279.777344 202.4375 279.777344 C 198.832031 279.777344 197.066406 277.359375 195.359375 275.015625 C 193.765625 272.839844 192.265625 270.78125 189.3125 270.78125 C 186.355469 270.78125 184.855469 272.839844 183.265625 275.015625 C 181.558594 277.359375 179.792969 279.777344 176.1875 279.777344 C 172.582031 279.777344 170.816406 277.359375 169.109375 275.015625 C 167.519531 272.839844 166.019531 270.78125 163.066406 270.78125 C 160.109375 270.78125 158.609375 272.839844 157.019531 275.015625 C 155.3125 277.359375 153.550781 279.777344 149.941406 279.777344 C 146.335938 279.777344 144.570312 277.359375 142.863281 275.015625 C 141.273438 272.839844 139.773438 270.78125 136.820312 270.78125 C 133.867188 270.78125 132.359375 272.839844 130.773438 275.015625 C 129.066406 277.355469 127.300781 279.777344 123.695312 279.777344 C 123.339844 279.777344 123.054688 279.488281 123.054688 279.136719 C 123.054688 278.785156 123.339844 278.496094 123.695312 278.496094 C 126.648438 278.496094 128.148438 276.4375 129.738281 274.261719 C 131.445312 271.917969 133.210938 269.5 136.820312 269.5 C 140.425781 269.5 142.191406 271.917969 143.898438 274.261719 C 145.488281 276.4375 146.984375 278.496094 149.941406 278.496094 C 152.898438 278.496094 154.398438 276.4375 155.988281 274.261719 C 157.695312 271.917969 159.457031 269.5 163.066406 269.5 C 166.671875 269.5 168.4375 271.917969 170.144531 274.261719 C 171.734375 276.4375 173.230469 278.496094 176.1875 278.496094 C 179.144531 278.496094 180.644531 276.4375 182.230469 274.261719 C 183.9375 271.917969 185.703125 269.5 189.3125 269.5 C 192.917969 269.5 194.683594 271.917969 196.390625 274.261719 C 197.976562 276.4375 199.476562 278.496094 202.433594 278.496094 C 205.390625 278.496094 206.890625 276.4375 208.476562 274.261719 C 210.183594 271.917969 211.949219 269.5 215.558594 269.5 C 219.167969 269.5 220.929688 271.917969 222.636719 274.261719 C 224.226562 276.4375 225.730469 278.496094 228.683594 278.496094 C 231.640625 278.496094 233.136719 276.4375 234.726562 274.261719 C 236.433594 271.917969 238.199219 269.5 241.804688 269.5 C 245.410156 269.5 247.175781 271.917969 248.882812 274.261719 C 250.472656 276.4375 251.972656 278.496094 254.929688 278.496094 C 257.882812 278.496094 259.382812 276.4375 260.972656 274.261719 C 262.679688 271.917969 264.445312 269.5 268.050781 269.5 C 271.65625 269.5 273.421875 271.917969 275.128906 274.261719 C 276.71875 276.4375 278.21875 278.496094 281.171875 278.496094 C 281.527344 278.496094 281.8125 278.78125 281.8125 279.136719 Z M 281.8125 279.136719 " fill-opacity="1" fill-rule="nonzero"/></g></svg>